<?xml version="1.0" standalone="no"?>
<!DOCTYPE svg PUBLIC "-//W3C//DTD SVG 20010904//EN"
 "http://www.w3.org/TR/2001/REC-SVG-20010904/DTD/svg10.dtd">
<svg version="1.0" xmlns="http://www.w3.org/2000/svg"
 width="512.000000pt" height="512.000000pt" viewBox="0 0 512.000000 512.000000"
 preserveAspectRatio="xMidYMid meet">

<g transform="translate(0.000000,512.000000) scale(0.100000,-0.100000)"
fill="#000000" stroke="none">
<path d="M1430 4379 c-483 -59 -873 -416 -971 -890 -29 -145 -23 -380 14 -514
52 -185 143 -342 289 -500 46 -49 387 -427 759 -840 371 -412 692 -765 712
-783 83 -72 206 -115 327 -115 124 0 243 42 327 115 20 18 341 371 712 783
371 413 712 789 757 837 146 155 243 326 294 518 33 126 39 360 12 490 -95
461 -453 810 -912 891 -104 18 -296 15 -400 -6 -234 -48 -436 -159 -601 -332
-61 -64 -158 -195 -184 -247 -3 -7 -7 -7 -10 -1 -3 6 -29 46 -57 90 -163 249
-429 429 -723 489 -95 19 -254 26 -345 15z"/>
</g>
</svg>
