<svg width="48" height="45" viewBox="0 0 48 45" fill="none" xmlns="http://www.w3.org/2000/svg">
<g id="Search" clip-path="url(#clip0_564_81)">
<path id="Vector" d="M31 27.625H29.42L28.86 27.1187C30.82 24.9813 32 22.2063 32 19.1875C32 12.4563 26.18 7 19 7C11.82 7 6 12.4563 6 19.1875C6 25.9188 11.82 31.375 19 31.375C22.22 31.375 25.18 30.2688 27.46 28.4313L28 28.9563V30.4375L38 39.7938L40.98 37L31 27.625ZM19 27.625C14.02 27.625 10 23.8563 10 19.1875C10 14.5188 14.02 10.75 19 10.75C23.98 10.75 28 14.5188 28 19.1875C28 23.8563 23.98 27.625 19 27.625Z" fill="#434343"/>
</g>
<defs>
<clipPath id="clip0_564_81">
<rect width="48" height="45" fill="white"/>
</clipPath>
</defs>
</svg>
